<svg width="1220" height="1415" viewBox="0 0 1220 1415" fill="none" xmlns="http://www.w3.org/2000/svg">
<path fill-rule="evenodd" clip-rule="evenodd" d="M0.0137537 0.00585938H0V585.971C465.936 629.137 863.063 958.281 988.343 1414.01H1000V1405C894.194 799.402 517.313 288.024 0.0137537 0.00585938Z" fill="#3054D6"/>
<path d="M1000 10C1000 4.47717 1004.48 0 1010 0H1210C1215.52 0 1220 4.47715 1220 10V1404C1220 1409.52 1215.52 1414 1210 1414H1000V10Z" fill="#3054D6"/>
<path d="M0 414H220V1404C220 1409.52 215.523 1414 210 1414H10C4.47716 1414 0 1409.52 0 1404V414Z" fill="#3054D6"/>
</svg>
