<svg width="568" height="344" xmlns="http://www.w3.org/2000/svg" xmlns:xlink="http://www.w3.org/1999/xlink" xml:space="preserve" overflow="hidden"><defs><clipPath id="clip0"><rect x="1842" y="701" width="568" height="344"/></clipPath><clipPath id="clip1"><rect x="1952" y="866" width="175" height="175"/></clipPath><clipPath id="clip2"><rect x="1952" y="866" width="175" height="175"/></clipPath><clipPath id="clip3"><rect x="1952" y="866" width="175" height="175"/></clipPath></defs><g clip-path="url(#clip0)" transform="translate(-1842 -701)"><path d="M1847 1021 1993.42 802 2408 802 2261.58 1021Z" fill="#4472C4" fill-rule="evenodd" fill-opacity="0.27451"/><path d="M2270.42 720.062C2259.65 703.904 2237.97 699.638 2222 710.534 2218.28 713.068 2215.08 716.303 2212.58 720.062 2206.07 729.775 2204.7 742.103 2208.9 753.038L2224.78 788.552 2238.49 817.639C2239.34 819.32 2241.38 819.985 2243.04 819.123 2243.67 818.796 2244.19 818.277 2244.51 817.639L2258.22 788.552 2274.1 753.038C2278.3 742.103 2276.93 729.775 2270.42 720.062ZM2267.83 750.397 2252.09 785.596 2241.53 808C2241.52 808.034 2241.49 808.034 2241.47 808L2230.97 785.722 2215.17 750.397C2211.84 741.591 2212.98 731.694 2218.21 723.894 2226.89 710.883 2244.35 707.454 2257.21 716.233 2260.22 718.282 2262.8 720.899 2264.82 723.939 2270.03 731.732 2271.16 741.61 2267.83 750.397Z" stroke="#3054D6" stroke-width="3.4375" stroke-linecap="butt" stroke-linejoin="miter" stroke-miterlimit="8" stroke-opacity="1" fill="#3054D6" fill-rule="evenodd" fill-opacity="1"/><path d="M2135.58 965.5C2138.84 965.461 2142.15 965.403 2145.5 965.32L2145.34 958.5C2142.02 958.583 2138.73 958.639 2135.5 958.678Z" stroke="#3054D6" stroke-width="3.4375" stroke-linecap="butt" stroke-linejoin="miter" stroke-miterlimit="8" stroke-opacity="1" fill="#3054D6" fill-rule="evenodd" fill-opacity="1"/><path d="M2162.5 833.532 2159.52 827.5C2156.34 829.089 2153.32 830.986 2150.5 833.167L2154.57 838.5C2157.05 836.589 2159.71 834.925 2162.5 833.532Z" stroke="#3054D6" stroke-width="3.4375" stroke-linecap="butt" stroke-linejoin="miter" stroke-miterlimit="8" stroke-opacity="1" fill="#3054D6" fill-rule="evenodd" fill-opacity="1"/><path d="M2148.5 844.97 2142.39 841.5C2140.1 844.68 2138.76 848.334 2138.5 852.111L2145.72 852.5C2145.9 849.816 2146.86 847.221 2148.5 844.97Z" stroke="#3054D6" stroke-width="3.4375" stroke-linecap="butt" stroke-linejoin="miter" stroke-miterlimit="8" stroke-opacity="1" fill="#3054D6" fill-rule="evenodd" fill-opacity="1"/><path d="M2124.49 959.51 2121.11 959.514 2114.53 959.5 2114.5 966.486 2121.11 966.5 2124.5 966.497 2124.49 959.51Z" stroke="#3054D6" stroke-width="3.4375" stroke-linecap="butt" stroke-linejoin="miter" stroke-miterlimit="8" stroke-opacity="1" fill="#3054D6" fill-rule="evenodd" fill-opacity="1"/><path d="M2189.5 882.001C2186.06 881.177 2182.65 880.356 2179.34 879.5L2177.5 885.968C2180.86 886.833 2184.3 887.666 2187.79 888.5Z" stroke="#3054D6" stroke-width="3.4375" stroke-linecap="butt" stroke-linejoin="miter" stroke-miterlimit="8" stroke-opacity="1" fill="#3054D6" fill-rule="evenodd" fill-opacity="1"/><path d="M2093.5 959.5 2093.5 965.467C2096.85 965.467 2100.53 965.482 2104.46 965.5L2104.5 959.533C2100.55 959.514 2096.87 959.5 2093.5 959.5Z" stroke="#3054D6" stroke-width="3.4375" stroke-linecap="butt" stroke-linejoin="miter" stroke-miterlimit="8" stroke-opacity="1" fill="#3054D6" fill-rule="evenodd" fill-opacity="1"/><path d="M2148.08 873.5 2152.5 868.143C2150.13 866.38 2148.21 864.106 2146.89 861.5L2140.5 864.427C2142.28 867.974 2144.87 871.078 2148.08 873.5Z" stroke="#3054D6" stroke-width="3.4375" stroke-linecap="butt" stroke-linejoin="miter" stroke-miterlimit="8" stroke-opacity="1" fill="#3054D6" fill-rule="evenodd" fill-opacity="1"/><path d="M2189.5 817.464 2190.97 824.5C2194.34 823.805 2197.89 823.165 2201.5 822.599L2200.37 815.5C2196.64 816.085 2192.98 816.745 2189.5 817.464Z" stroke="#3054D6" stroke-width="3.4375" stroke-linecap="butt" stroke-linejoin="miter" stroke-miterlimit="8" stroke-opacity="1" fill="#3054D6" fill-rule="evenodd" fill-opacity="1"/><path d="M2210.5 814.343 2211.29 820.5C2217.35 819.889 2221.33 819.695 2221.5 819.688L2221.12 813.5C2220.68 813.521 2216.66 813.723 2210.5 814.343Z" stroke="#3054D6" stroke-width="3.4375" stroke-linecap="butt" stroke-linejoin="miter" stroke-miterlimit="8" stroke-opacity="1" fill="#3054D6" fill-rule="evenodd" fill-opacity="1"/><path d="M2251.5 928.944C2251.51 925.767 2251.17 922.598 2250.47 919.5L2243.5 921.159C2244.07 923.71 2244.35 926.319 2244.34 928.935 2244.34 929.524 2244.31 930.111 2244.25 930.696L2251.36 931.5C2251.45 930.652 2251.5 929.799 2251.5 928.944Z" stroke="#3054D6" stroke-width="3.4375" stroke-linecap="butt" stroke-linejoin="miter" stroke-miterlimit="8" stroke-opacity="1" fill="#3054D6" fill-rule="evenodd" fill-opacity="1"/><path d="M2216.5 951.343 2218.3 957.5C2221.76 956.648 2225.16 955.628 2228.5 954.445L2226 948.5C2222.89 949.602 2219.72 950.55 2216.5 951.343Z" stroke="#3054D6" stroke-width="3.4375" stroke-linecap="butt" stroke-linejoin="miter" stroke-miterlimit="8" stroke-opacity="1" fill="#3054D6" fill-rule="evenodd" fill-opacity="1"/><path d="M2234.5 943.999 2238.02 949.5C2241.25 947.662 2244.11 945.3 2246.5 942.521L2241.24 938.5C2239.34 940.692 2237.06 942.552 2234.5 943.999Z" stroke="#3054D6" stroke-width="3.4375" stroke-linecap="butt" stroke-linejoin="miter" stroke-miterlimit="8" stroke-opacity="1" fill="#3054D6" fill-rule="evenodd" fill-opacity="1"/><path d="M2219.92 890.5 2217.5 897.233C2220.52 898.457 2223.47 899.882 2226.32 901.5L2229.5 895.14C2226.4 893.382 2223.2 891.832 2219.92 890.5Z" stroke="#3054D6" stroke-width="3.4375" stroke-linecap="butt" stroke-linejoin="miter" stroke-miterlimit="8" stroke-opacity="1" fill="#3054D6" fill-rule="evenodd" fill-opacity="1"/><path d="M2238.93 901.5 2234.5 906.734C2236.9 908.669 2238.99 910.95 2240.69 913.5L2246.5 909.803C2244.41 906.675 2241.86 903.876 2238.93 901.5Z" stroke="#3054D6" stroke-width="3.4375" stroke-linecap="butt" stroke-linejoin="miter" stroke-miterlimit="8" stroke-opacity="1" fill="#3054D6" fill-rule="evenodd" fill-opacity="1"/><path d="M2196.5 955.104 2197.47 961.5C2200.98 961.002 2204.35 960.444 2207.5 959.842L2206.21 953.5C2203.17 954.082 2199.9 954.621 2196.5 955.104Z" stroke="#3054D6" stroke-width="3.4375" stroke-linecap="butt" stroke-linejoin="miter" stroke-miterlimit="8" stroke-opacity="1" fill="#3054D6" fill-rule="evenodd" fill-opacity="1"/><path d="M2157.5 878.66C2160.71 880.132 2164.01 881.414 2167.37 882.5L2169.5 876.047C2166.39 875.043 2163.34 873.859 2160.36 872.5Z" stroke="#3054D6" stroke-width="3.4375" stroke-linecap="butt" stroke-linejoin="miter" stroke-miterlimit="8" stroke-opacity="1" fill="#3054D6" fill-rule="evenodd" fill-opacity="1"/><path d="M2166.5 965.029 2166.09 958.5C2162.57 958.687 2159.03 958.84 2155.5 958.966L2155.78 965.5C2159.35 965.374 2162.93 965.219 2166.5 965.029Z" stroke="#3054D6" stroke-width="3.4375" stroke-linecap="butt" stroke-linejoin="miter" stroke-miterlimit="8" stroke-opacity="1" fill="#3054D6" fill-rule="evenodd" fill-opacity="1"/><path d="M2169.5 822.786 2171.84 829.5C2174.82 828.394 2178.07 827.346 2181.5 826.385L2179.69 819.5C2176.08 820.51 2172.65 821.617 2169.5 822.786Z" stroke="#3054D6" stroke-width="3.4375" stroke-linecap="butt" stroke-linejoin="miter" stroke-miterlimit="8" stroke-opacity="1" fill="#3054D6" fill-rule="evenodd" fill-opacity="1"/><path d="M2177.05 964.5C2180.58 964.213 2184.07 963.881 2187.5 963.5L2186.75 956.5C2183.38 956.874 2179.96 957.199 2176.5 957.482Z" stroke="#3054D6" stroke-width="3.4375" stroke-linecap="butt" stroke-linejoin="miter" stroke-miterlimit="8" stroke-opacity="1" fill="#3054D6" fill-rule="evenodd" fill-opacity="1"/><path d="M2199.27 884.5 2197.5 890.867C2200.86 891.698 2204.21 892.564 2207.48 893.5L2209.5 887.2C2206.15 886.24 2202.72 885.352 2199.27 884.5Z" stroke="#3054D6" stroke-width="3.4375" stroke-linecap="butt" stroke-linejoin="miter" stroke-miterlimit="8" stroke-opacity="1" fill="#3054D6" fill-rule="evenodd" fill-opacity="1"/><path d="M2241.5 725.501C2233.22 725.501 2226.5 732.216 2226.5 740.5 2226.5 748.785 2233.22 755.5 2241.5 755.5 2249.78 755.5 2256.5 748.784 2256.5 740.5 2256.53 732.251 2249.87 725.535 2241.62 725.501 2241.58 725.5 2241.54 725.5 2241.5 725.501ZM2241.5 748.731C2236.95 748.731 2233.27 745.046 2233.27 740.5 2233.27 735.954 2236.95 732.269 2241.5 732.269 2246.05 732.27 2249.73 735.954 2249.73 740.5 2249.78 744.998 2246.17 748.683 2241.68 748.731 2241.62 748.732 2241.56 748.732 2241.5 748.731Z" stroke="#3054D6" stroke-width="3.4375" stroke-linecap="butt" stroke-linejoin="miter" stroke-miterlimit="8" stroke-opacity="1" fill="#3054D6" fill-rule="evenodd" fill-opacity="1"/><g clip-path="url(#clip1)"><g clip-path="url(#clip2)"><g clip-path="url(#clip3)"><path d="M2096.64 892.375C2096.28 892.375 2095.73 892.375 2095.37 892.556L1980.09 930.981C1978.46 931.525 1977.38 932.975 1977.38 934.606 1977.38 936.237 1978.46 937.687 1980.09 938.231L2034.83 957.987 2054.59 1012.72C2055.13 1014.36 2056.58 1015.44 2058.21 1015.44 2059.84 1015.44 2061.29 1014.36 2061.84 1012.72L2100.26 897.269C2100.62 896 2100.44 894.731 2099.72 893.825 2099.18 893.1 2098.09 892.375 2096.64 892.375ZM2085.76 907.237 2058.03 990.431 2045.16 954.544 2043.35 949.65 2038.46 947.837 2002.57 934.969 2085.76 907.237" stroke="#3054D6" stroke-width="1.81243" stroke-linecap="butt" stroke-linejoin="miter" stroke-miterlimit="4" stroke-opacity="1" fill="#3054D6" fill-rule="nonzero" fill-opacity="1"/></g></g></g></g></svg>