<svg width="490" height="321" xmlns="http://www.w3.org/2000/svg" xmlns:xlink="http://www.w3.org/1999/xlink"
    xml:space="preserve" overflow="hidden">
    <defs>
        <clipPath id="clip0">
            <rect x="2658" y="375" width="490" height="321" />
        </clipPath>
    </defs>
    <g clip-path="url(#clip0)" transform="translate(-2658 -375)">
        <path
            d="M3148 693 3148 443.478 2905 378 2662 443.478 2662 693 2700.37 693 2700.37 483 3109.63 483 3109.63 693 3148 693Z"
            fill="#4472C4" fill-rule="evenodd" fill-opacity="0.270588" />
        <path
            d="M2905.5 588.147C2892.6 588.147 2882.28 577.794 2882.28 564.853 2882.28 551.912 2892.6 541.559 2905.5 541.559 2918.4 541.559 2928.72 551.912 2928.72 564.853 2928.72 577.794 2918.4 588.147 2905.5 588.147ZM2905.5 510.5C2887.7 510.5 2870.93 519.3 2860.87 534.312 2850.81 549.065 2848.74 567.959 2855.19 584.783L2879.7 639.135 2900.86 683.653C2901.63 685.465 2903.44 686.5 2905.5 686.5 2907.56 686.5 2909.37 685.465 2910.14 683.653L2931.3 639.135 2955.81 584.783C2962.26 567.959 2960.19 549.065 2950.13 534.312 2940.07 519.3 2923.3 510.5 2905.5 510.5Z"
            stroke="#3054D6" stroke-width="2.57822" stroke-linecap="butt" stroke-linejoin="miter" stroke-miterlimit="8"
            stroke-opacity="1" fill="#3054D6" fill-rule="evenodd" fill-opacity="1" />
    </g>
</svg>